        <svg version="1.1" xmlns="http://www.w3.org/2000/svg" xmlns:xlink="http://www.w3.org/1999/xlink" x="0px" y="0px" viewBox="0 0 1000 1000" enableBackground="new 0 0 1000 1000" xmlSpace="preserve">
          <metadata> Svg Vector Icons : http://www.onlinewebfonts.com/icon </metadata>
          <g>
            <path fill="#A9BCD0" d="M901.4,884.9c105.8-161,73.8-373.8-69.4-497.2c5.2-3.3,9.7-7.6,13.4-13c14.5-21.2,9.1-50.1-12.1-64.6c-21.2-14.5-50.1-9-64.6,12.1c-3.7,5.4-6.1,11.2-7.2,17.2C594.5,250.8,384.6,298.3,273,455.3L901.4,884.9z M456.5,535l-87.7-59.9C482.9,320,666.3,369.3,666.3,369.3S493.2,414.7,456.5,535z" />
            <path fill="#A9BCD0" d="M965.4,935c0,30.4-26.8,55-59.8,55H94.4c-33,0-59.8-24.6-59.8-55l0,0c0-30.4,26.8-55,59.8-55h811.2C938.6,880,965.4,904.6,965.4,935L965.4,935z" />
            <path fill="#A9BCD0" d="M212,314.7c72.4-27.3,95.1-48.6,89-93.7c-8.3-61.5-74.2-92.5-68.1-148.2c4.8-43.7,20.1-48.6,29.7-62.8c-23.5,10.7-54.3,35-59.3,69.3c-7,47.4,47.5,73.9,58.4,147.6C267.2,264.5,243.4,288.6,212,314.7z" />
            <path fill="#A9BCD0" d="M359.1,314.7c57.1-18.6,75.4-34.1,74.2-68.8c-1.5-47.2-50.5-72.9-42.1-115.3c6.6-33.2,18.6-36.5,26.9-47.1c-18.7,7.4-45.6,29.9-50,51.1c-7.4,36.1,31.4,57.9,34.7,114.5C404.6,278,384.8,295.7,359.1,314.7z" />
            <path fill="#A9BCD0" d="M75,314.7c57.1-18.6,75.4-34.1,74.2-68.8c-1.5-47.2-50.5-72.9-42.1-115.3c6.6-33.2,18.6-36.5,26.9-47.1c-18.7,7.4-45.6,29.9-50,51.1c-7.4,36.1,31.4,57.9,34.7,114.5C120.5,278,100.8,295.7,75,314.7z" />
            <path fill="#A9BCD0" d="M321.2,691.1c49.2,9.7,83.2,45.1,95.5,82.2c-13.3-30-43.9-54.9-84.1-64.4c-0.2-0.1-0.5-0.1-0.7-0.2c-40.5-9.3-81-0.8-109,19.9l17.8,14.3c13.3,8.9-11.3,40.5-24.5,31.6l-22-12.1c-2,4.2-3.7,8.5-5,13c-8.5,29.8,1.1,60.3,23.1,83.7h435.3c26.2-24.4,43.1-55.4,46.5-89.4L453.4,604.3C392.4,615.8,345.4,645.8,321.2,691.1z" />
            <path fill="#A9BCD0" d="M221.7,756.3l2.9-3.3c8-9.2-2.1-17.3-14.5-25.4L121.6,660c-8.9-5.8-19.9-6.9-28.3-3.7c-3.4,1.3,7.9,12.7,5.7,15.3l-2.9,3.3c-2.1,2.4-17.7-4.3-18.2-1.4c-1.5,8.1,2.8,17.3,12,23.2l100.8,55.6C203,760.4,213.8,765.5,221.7,756.3z" />
          </g>
        </svg>